<svg width="157" height="157" viewBox="0 0 157 157" fill="none" xmlns="http://www.w3.org/2000/svg">
<g filter="url(#filter0_d_0_2128)">
<circle cx="78.5" cy="63.5" r="48.5" fill="#FF2D59"/>
<path d="M77.8117 55.6651H71.3367C70.6524 55.6649 69.9847 55.8752 69.4242 56.2676C68.8636 56.66 68.4374 57.2154 68.2034 57.8584L61.9367 75.0951C61.715 75.7034 61.8667 76.3851 62.3234 76.8434L62.8117 77.3317L73.515 66.6284C73.5134 66.5851 73.5017 66.5417 73.5017 66.4984C73.5017 66.0039 73.6483 65.5206 73.923 65.1095C74.1977 64.6984 74.5882 64.3779 75.045 64.1887C75.5018 63.9995 76.0045 63.95 76.4894 64.0464C76.9744 64.1429 77.4198 64.381 77.7695 64.7306C78.1191 65.0803 78.3572 65.5257 78.4537 66.0107C78.5501 66.4956 78.5006 66.9983 78.3114 67.4551C78.1222 67.9119 77.8017 68.3024 77.3906 68.5771C76.9795 68.8518 76.4962 68.9984 76.0017 68.9984C75.9584 68.9984 75.915 68.9867 75.8717 68.9851L65.1684 79.6884L65.6567 80.1767C65.8808 80.4014 66.1645 80.5572 66.4743 80.6257C66.7841 80.6942 67.1071 80.6726 67.405 80.5634L84.6417 74.2951C85.2847 74.0611 85.8401 73.6348 86.2325 73.0743C86.6249 72.5137 86.8352 71.846 86.835 71.1617V64.6867L90.1667 61.3567L81.1434 52.3334L77.8117 55.6651ZM91.7334 59.1017L83.4 50.7684L86.9334 47.2334L95.2667 55.5667L91.7334 59.1017Z" fill="white"/>
</g>
<defs>
<filter id="filter0_d_0_2128" x="0" y="0" width="157" height="157" filterUnits="userSpaceOnUse" color-interpolation-filters="sRGB">
<feFlood flood-opacity="0" result="BackgroundImageFix"/>
<feColorMatrix in="SourceAlpha" type="matrix" values="0 0 0 0 0 0 0 0 0 0 0 0 0 0 0 0 0 0 127 0" result="hardAlpha"/>
<feOffset dy="15"/>
<feGaussianBlur stdDeviation="15"/>
<feComposite in2="hardAlpha" operator="out"/>
<feColorMatrix type="matrix" values="0 0 0 0 1 0 0 0 0 0.176471 0 0 0 0 0.34902 0 0 0 0.4 0"/>
<feBlend mode="normal" in2="BackgroundImageFix" result="effect1_dropShadow_0_2128"/>
<feBlend mode="normal" in="SourceGraphic" in2="effect1_dropShadow_0_2128" result="shape"/>
</filter>
</defs>
</svg>
